<svg width="66" height="60" viewBox="0 0 66 60" version="1.1" xmlns="http://www.w3.org/2000/svg" xmlns:xlink="http://www.w3.org/1999/xlink"><title>eac-logo-flag copy</title><desc>Created with Sketch.</desc><g id="Page-1" stroke="none" stroke-width="1" fill="none" fill-rule="evenodd"><g id="C01" transform="translate(-9.000000, -9.000000)"><g id="eac-logo-flag-copy" transform="translate(10.000000, 9.000000)"><g id="g26596" transform="translate(0.253845, 0.420260)"><path d="M31.9320475,0.224564796 C17.77174,0.224564796 6.27301335,11.7232915 6.27301589,25.8835964 C6.27301589,32.9479445 9.13465591,39.3439865 13.7595465,43.984646 L2.77189209,47.4937104 L3.78015231,50.0183304 L0.239332966,50.7725408 L2.77189209,58.9894631 L61.0922032,58.9894631 L63.6168233,50.7725408 L60.076004,50.0183304 L61.0922032,47.4937104 L50.0966095,43.984646 C54.7215001,39.3439865 57.5831401,32.947947 57.5831401,25.8835964 C57.5831401,11.7232889 46.0923551,0.224564796 31.9320475,0.224564796 Z" id="path4073" stroke="#000" fill="#FFF" fill-rule="nonzero"/><g id="g12864" transform="translate(3.326615, 45.682560)"><polygon id="path6707" fill="#008300" fill-rule="nonzero" points="0.0285452916 5.24309246 2.25654213 12.4718641 54.9533714 12.4718641 57.174379 5.24309246"/><polygon id="path8461" fill="#FFF" fill-rule="nonzero" points="1.41813276 6.17407834 3.06945658 11.5408807 16.0815694 11.5408807 41.1213546 11.5408807 54.1334688 11.5408807 55.7847926 6.17407834 42.7647394 6.17407834 14.4302456 6.17407834"/><text id="tspan8465" fill="#000" font-family="GTAmerica-CondensedRegular, GT America" font-size="4.091" font-style="condensed" font-weight="normal"><tspan x="3.51" y="10.261">JUMUIYA YA AFRIKA MASHARIKI</tspan></text><g id="g12852" transform="translate(-0.000000, 0.321507)"><polygon id="path9350" fill="#008300" points="0.0285452916 4.92422984 3.36380225 4.03055118 2.31023505 2.20571895 8.05939387 0.0543412561 8.05939387 2.00899802 9.83533954 2.00899802 9.83533954 5.01358678 0.162578927 5.01358678"/><polygon id="path10225" fill="#FFF" points="8.99431473 4.96890704 2.00222683 4.96890704 8.99431473 3.09368912"/><polygon id="path11102" fill="#FFF" points="7.47526703 2.04250465 4.30313774 2.04250465 7.47526703 0.813863836"/><polygon id="path11977" fill="#FFF" points="3.34256344 2.57864122 4.0581824 3.84207162 8.71126106 2.57864122"/></g><g id="use12858" transform="translate(52.202924, 3.321507) scale(-1, 1) translate(-52.202924, -3.321507) translate(47.202924, 0.321507)"><g id="g12852"><polygon id="path9350" fill="#008300" points="0.0285452916 4.92422984 3.36380225 4.03055118 2.31023505 2.20571895 8.05939387 0.0543412561 8.05939387 2.00899802 9.83533954 2.00899802 9.83533954 5.01358678 0.162578927 5.01358678"/><polygon id="path10225" fill="#FFF" points="8.99431473 4.96890704 2.00222683 4.96890704 8.99431473 3.09368912"/><polygon id="path11102" fill="#FFF" points="7.47526703 2.04250465 4.30313774 2.04250465 7.47526703 0.813863836"/><polygon id="path11977" fill="#FFF" points="3.34256344 2.57864122 4.0581824 3.84207162 8.71126106 2.57864122"/></g></g></g><path d="M31.3485281,3.2749435 C19.0895574,3.58500369 9.23031583,13.6395054 9.23031583,25.9727069 C9.23031583,35.60464 15.2387566,43.8383616 23.7111555,47.1302936 L23.7111555,44.6215514 C16.5535813,41.4612301 11.5564595,34.2960852 11.5564595,25.9727069 C11.556462,14.7706851 20.607688,5.66406864 31.7931153,5.59314809 C31.8369795,5.59287118 31.884149,5.59314809 31.9280793,5.59314809 C43.174034,5.59314555 52.2996991,14.7267548 52.2996991,25.9727069 C52.2997016,34.2960852 47.3025798,41.4612301 40.1450031,44.6215514 L40.1450031,47.1302936 C48.6174019,43.8383641 54.6258427,35.6046425 54.6258427,25.9727069 C54.6258427,13.4443215 44.4564673,3.27494096 31.9280793,3.2749435 C31.7812613,3.2749435 31.6375885,3.2721642 31.4914311,3.2749435 C31.4432836,3.27586062 31.396602,3.27370826 31.3485281,3.2749435 Z" id="path12876" stroke="#000" stroke-width=".5" fill="#FF0" fill-rule="nonzero"/><g id="g14644" transform="translate(25.579844, 42.289444)" stroke="#000" stroke-width=".5"><path d="M12.6069224,0.087314382 C12.6069224,0.087314382 12.6405155,3.4467955 12.6405155,3.4467955 C10.5912353,3.74914781 8.30678377,5.89921842 7.70207915,6.30235636 C7.09737199,6.70549405 6.06729651,7.49930116 5.52967121,7.4329784 C4.62325194,7.32116066 5.29306699,6.58803437 5.29306699,6.58803437 C5.29306699,6.58803437 4.66696883,7.3237728 4.18367208,6.99204649 C3.75483091,6.69769802 4.44359045,6.1132084 4.44359045,6.1132084 C4.44359045,6.1132084 4.21628954,6.42686135 3.74216144,6.2997836 C3.29857268,6.18089209 3.61934106,5.62723675 3.61934106,5.62723675 C3.61934106,5.62723675 2.3770222,6.27865275 2.19321716,6.06719311 C1.8284067,5.64749037 2.2825741,5.26126402 2.2825741,5.26126402 C2.2825741,5.26126402 5.14887339,2.84209088 5.14887339,2.84209088 C5.14887339,2.84209088 3.29614142,3.5362439 5.14887339,2.84209088 C6.74490327,2.24411604 7.16456054,3.0772521 7.90364735,3.04365909 C8.64273417,3.010061 10.6248283,1.93502887 11.1623444,1.39751281 C11.699863,0.859994202 11.5654808,0.288885129 11.9686223,0.154502937 C12.3717587,0.0201258266 12.5733269,0.0537188341 12.6069224,0.087314382 Z" id="path14638" fill="#FFF"/><path d="M0.0794871071,0.300858497 C0.0794871071,0.300858497 0.0478960122,3.46006198 0.0478960122,3.46006198 C1.97500869,3.74438946 4.1232692,5.76628127 4.69192415,6.14538558 C5.26058164,6.5244899 6.20824081,7.12392324 6.71381519,7.06155452 C7.56619806,6.95640279 7.39477795,6.64459627 7.39477795,6.64459627 C7.39477795,6.64459627 7.772705,6.83354938 8.27367091,6.64690914 C8.77686993,6.45943816 8.52961086,6.10309874 8.52961086,6.10309874 C8.52961086,6.10309874 9.27458909,6.32194818 9.6202823,5.92424131 C9.96334609,5.52955892 9.32987541,5.13602838 9.32987541,5.13602838 C9.32987541,5.13602838 9.61195963,4.94105582 9.10648687,5.22538405 C8.60101411,5.50971229 7.56680016,4.31304695 6.52426354,4.28145586 C5.48172438,4.24986222 5.38694856,5.29240087 4.72351778,4.78692862 C4.06008447,4.28145586 5.27079444,3.46509979 5.67127858,3.33369506 C7.32178435,2.79213961 8.84120805,3.46260248 6.84719135,2.71269569 C5.82667069,2.30913755 5.04102417,3.04553398 4.34599975,3.01394288 C3.65097534,2.98234925 1.9434176,2.03842207 1.43794484,1.53294931 C0.932472074,1.02747654 1.05884153,0.490412688 0.679735694,0.364043227 C0.300632393,0.237676307 0.111080743,0.269267402 0.0794871071,0.300858497 Z" id="path14632" fill="#FFF"/><line x1="8.562" y1="6.093" x2="7.199" y2="5.501" id="path14640"/><line x1="7.534" y1="6.719" x2="5.926" y2="5.725" id="path14642"/></g><g id="g17313" transform="translate(12.784727, 8.968318)" fill="#008300" stroke="#000" stroke-width=".5"><path d="M10.2262524,31.9916546 C6.26881128,33.924456 6.08357106,28.8746173 4.2560573,28.9157878 C7.62877288,26.6820578 7.09790869,30.8445831 10.2262524,31.9916546 Z" id="path14650"/><path d="M8.67369381,26.4371263 C6.6538138,30.0815396 11.3219344,30.562767 11.1780046,32.2971783 C13.4428603,29.2266849 9.55540806,29.4796752 8.67369381,26.4371263 Z" id="path14652"/><path d="M6.73870523,27.8225286 C1.86935685,28.6767844 3.18204799,24.4342894 1.16453678,24.0561232 C5.47363558,22.7958059 3.61563424,26.0702052 6.73870523,27.8225286 Z" id="path15527"/><path d="M6.24541293,22.8008233 C3.55930588,25.9861778 7.43592059,26.139465 6.95951919,27.8133627 C9.7750683,25.2384518 6.88881846,25.345907 6.24541293,22.8008233 Z" id="path15529"/><path d="M3.41446784,23.3951763 C-1.44743049,22.6839592 1.61961161,17.7228511 0.149359633,16.636637 C4.18367265,16.9350985 1.58199309,21.3056609 3.41446784,23.3951763 Z" id="path16414"/><path d="M5.28195419,17.1369056 C0.782200074,19.2704807 5.33873176,21.5319219 3.55264378,23.5478473 C7.9558122,23.300115 4.05550212,20.3877273 5.28195419,17.1369056 Z" id="path16416"/><path d="M2.78170595,17.2920068 C-2.44624204,14.8644599 3.02041969,10.4208795 2.08399719,8.76467294 C5.65231679,12.3596851 0.225016426,13.7503258 2.78170595,17.2920068 Z" id="path16418"/><path d="M6.13740052,11.2488035 C1.6360803,11.8178852 3.87494059,15.9606475 2.9619189,17.4199367 C6.45928249,16.6191299 3.62288547,14.5098369 6.13740052,11.2488035 Z" id="path16420"/><path d="M3.96199218,9.99256102 C1.39068973,6.13552758 5.61418769,5.25079157 5.92678101,3.28789533 C7.15678014,8.37810185 4.2729482,6.7044104 3.96199218,9.99256102 Z" id="path16426"/><path d="M9.03490769,6.77749956 C4.83958496,5.5880867 5.57477968,9.78304612 4.17450428,10.784224 C7.71310955,11.3767752 6.99359064,7.97936765 9.03490769,6.77749956 Z" id="path16428"/><path d="M7.08394136,4.95992985 C6.2538596,1.61110357 7.92389108,2.17458356 9.8252746,0.71561591 C10.8591199,3.41082504 8.30258253,3.10292268 7.08394136,4.95992985 Z" id="path16430"/><path d="M12.4168039,4.46935492 C9.17496885,2.09382587 8.83939203,5.29544285 7.17260815,5.72551641 C10.2607731,7.55201392 10.3849596,4.85593582 12.4168039,4.46935492 Z" id="path16432"/><path d="M10.4814177,2.85895585 C10.5882567,1.42426779 12.4960863,-0.498827691 14.5107574,0.172730981 C14.3886574,2.55370459 12.083996,3.19473396 10.4814177,2.85895585 Z" id="path16434"/></g><g id="use17328" transform="translate(43.153668, 25.891744) scale(-1, 1) translate(-43.153668, -25.891744) translate(35.153668, 8.891744)" fill="#008300" stroke="#000" stroke-width=".5"><g id="g17313" transform="translate(0.082236, 0.076574)"><path d="M10.2262524,31.9916546 C6.26881128,33.924456 6.08357106,28.8746173 4.2560573,28.9157878 C7.62877288,26.6820578 7.09790869,30.8445831 10.2262524,31.9916546 Z" id="path14650"/><path d="M8.67369381,26.4371263 C6.6538138,30.0815396 11.3219344,30.562767 11.1780046,32.2971783 C13.4428603,29.2266849 9.55540806,29.4796752 8.67369381,26.4371263 Z" id="path14652"/><path d="M6.73870523,27.8225286 C1.86935685,28.6767844 3.18204799,24.4342894 1.16453678,24.0561232 C5.47363558,22.7958059 3.61563424,26.0702052 6.73870523,27.8225286 Z" id="path15527"/><path d="M6.24541293,22.8008233 C3.55930588,25.9861778 7.43592059,26.139465 6.95951919,27.8133627 C9.7750683,25.2384518 6.88881846,25.345907 6.24541293,22.8008233 Z" id="path15529"/><path d="M3.41446784,23.3951763 C-1.44743049,22.6839592 1.61961161,17.7228511 0.149359633,16.636637 C4.18367265,16.9350985 1.58199309,21.3056609 3.41446784,23.3951763 Z" id="path16414"/><path d="M5.28195419,17.1369056 C0.782200074,19.2704807 5.33873176,21.5319219 3.55264378,23.5478473 C7.9558122,23.300115 4.05550212,20.3877273 5.28195419,17.1369056 Z" id="path16416"/><path d="M2.78170595,17.2920068 C-2.44624204,14.8644599 3.02041969,10.4208795 2.08399719,8.76467294 C5.65231679,12.3596851 0.225016426,13.7503258 2.78170595,17.2920068 Z" id="path16418"/><path d="M6.13740052,11.2488035 C1.6360803,11.8178852 3.87494059,15.9606475 2.9619189,17.4199367 C6.45928249,16.6191299 3.62288547,14.5098369 6.13740052,11.2488035 Z" id="path16420"/><path d="M3.96199218,9.99256102 C1.39068973,6.13552758 5.61418769,5.25079157 5.92678101,3.28789533 C7.15678014,8.37810185 4.2729482,6.7044104 3.96199218,9.99256102 Z" id="path16426"/><path d="M9.03490769,6.77749956 C4.83958496,5.5880867 5.57477968,9.78304612 4.17450428,10.784224 C7.71310955,11.3767752 6.99359064,7.97936765 9.03490769,6.77749956 Z" id="path16428"/><path d="M7.08394136,4.95992985 C6.2538596,1.61110357 7.92389108,2.17458356 9.8252746,0.71561591 C10.8591199,3.41082504 8.30258253,3.10292268 7.08394136,4.95992985 Z" id="path16430"/><path d="M12.4168039,4.46935492 C9.17496885,2.09382587 8.83939203,5.29544285 7.17260815,5.72551641 C10.2607731,7.55201392 10.3849596,4.85593582 12.4168039,4.46935492 Z" id="path16432"/><path d="M10.4814177,2.85895585 C10.5882567,1.42426779 12.4960863,-0.498827691 14.5107574,0.172730981 C14.3886574,2.55370459 12.083996,3.19473396 10.4814177,2.85895585 Z" id="path16434"/></g></g><g id="g18248" transform="translate(27.054609, 7.009045)"><path d="M0.106018671,3.66216894 C0.106018671,3.66216894 2.46740009,3.06168098 4.82878151,3.07790862 C7.19016293,3.09413887 9.55154435,3.72708472 9.55154435,3.72708472" id="path17362"/><path d="M0.914118562,0.656058264 L1.10405895,1.76718763 L1.72181565,1.6615849 C1.88212563,1.63418222 1.98509625,1.59168797 2.0307275,1.53410214 C2.09172311,1.45824945 2.11266515,1.33945506 2.09355363,1.17772373 L2.17025337,1.16461103 L2.33751692,2.14306759 L2.26081478,2.15618029 C2.21807646,2.02267 2.18372739,1.93822227 2.15776759,1.90283233 C2.12461973,1.85871574 2.07735417,1.82768074 2.01596853,1.80972495 C1.9545805,1.79177155 1.8651533,1.79283636 1.74768453,1.81291459 L1.12993022,1.91851732 L1.28833311,2.84514999 C1.3095934,2.96952925 1.32811629,3.04459469 1.343897,3.07034392 C1.35944082,3.0947125 1.38245026,3.11282621 1.41292773,3.12468507 C1.44316591,3.13516327 1.49698064,3.133785 1.5743743,3.12055505 L2.05116466,3.0390505 C2.21009158,3.01188232 2.32359783,2.98110097 2.39168578,2.94670166 C2.45976656,2.91230713 2.52142498,2.85696099 2.57665866,2.78066563 C2.64769457,2.6803367 2.71336338,2.5361161 2.77366267,2.34801101 L2.85658377,2.33383589 L2.73452795,3.08011624 L0.568242285,3.45043527 L0.555129581,3.37373313 L0.654635382,3.3567225 C0.720969392,3.34538289 0.781134688,3.31874113 0.835126485,3.27679722 C0.875570084,3.24712375 0.899613231,3.20887677 0.907255927,3.16205389 C0.916279286,3.11499651 0.909098406,3.02305683 0.885708501,2.88623965 L0.573508902,1.05992476 C0.54303383,0.881649412 0.506284759,0.774850268 0.463266477,0.739532109 C0.40406549,0.692759478 0.316418551,0.679292635 0.200330444,0.699136367 L0.100827036,0.716144597 L0.0877167255,0.639444851 L2.25400239,0.269125824 L2.3903458,0.879493472 L2.30949928,0.893314454 C2.25519641,0.750402732 2.20535378,0.654378498 2.15997378,0.605236965 C2.11597204,0.555865721 2.05694334,0.522574289 1.98288288,0.505362669 C1.92405757,0.494085265 1.82485566,0.500376013 1.68527476,0.52423252 L0.914118562,0.656058264 M5.04722844,2.01336189 L3.94312921,2.019064 L3.75197327,2.47011469 C3.7048776,2.58112282 3.68146856,2.66396496 3.6817533,2.7186435 C3.68197584,2.76210685 3.70250392,2.80055722 3.74333755,2.83399701 C3.7855638,2.86602503 3.87540258,2.88659379 4.01285386,2.8956985 L4.01325586,2.97351091 L3.11525579,2.97814822 L3.11485379,2.90033581 C3.23391618,2.87869027 3.31088871,2.8509502 3.3457642,2.81712039 C3.41691976,2.74945596 3.49542848,2.61234924 3.58129037,2.40580023 L4.57232364,0.0536228445 L4.64592946,0.0532423847 L5.65081721,2.42035103 C5.73171397,2.61061444 5.80456127,2.73432132 5.8693519,2.79147165 C5.93553516,2.8472126 6.02683117,2.87828588 6.14323752,2.88469627 L6.14363951,2.96250869 L5.01850971,2.96831847 L5.01810771,2.89050606 C5.13164267,2.88431103 5.20795478,2.86498893 5.24704643,2.83253978 C5.28753788,2.80008344 5.30766397,2.7607214 5.30742708,2.71445366 C5.30710644,2.65276652 5.27856238,2.5554693 5.22179729,2.42256678 L5.04722844,2.01336189 M4.98753932,1.85804096 L4.49788751,0.708071191 L4.00752024,1.86310179 L4.98753932,1.85804096 M9.24909149,0.562390966 L9.14903533,1.52893124 L9.08478309,1.51788354 C9.04829483,1.21712645 8.9614136,0.990214463 8.82413699,0.837147575 C8.6868532,0.684083079 8.50698184,0.588422555 8.28451812,0.550163609 C8.09797795,0.518087734 7.9212053,0.536770945 7.75420018,0.606210847 C7.58742717,0.674272479 7.44269689,0.804449564 7.32000458,0.996744494 C7.19869053,1.18927871 7.1115413,1.43961171 7.05855449,1.7477435 C7.01483272,2.00198877 7.01769694,2.22939129 7.06714475,2.42994866 C7.11659017,2.63050603 7.21428221,2.79454644 7.36022325,2.92207227 C7.50754496,3.04983499 7.6862199,3.13177503 7.89625048,3.16789239 C8.07864149,3.1992576 8.24626875,3.18825058 8.39913703,3.13487135 C8.55223742,3.08010906 8.73234328,2.95103507 8.93945939,2.74764938 L8.9965834,2.80015283 C8.81263227,3.02601437 8.61671938,3.18082324 8.40884235,3.26457705 C8.20096053,3.34832846 7.96782479,3.36798794 7.70943513,3.3235555 C7.24377861,3.24347947 6.91284077,3.00874054 6.71661681,2.61934109 C6.57013021,2.32954316 6.52682478,2.01054075 6.58670294,1.66233385 C6.63493998,1.38183685 6.74212437,1.13494952 6.90826089,0.921669479 C7.07439502,0.708394223 7.27835978,0.556394537 7.52015995,0.465668026 C7.76357768,0.373802529 8.01586323,0.350324089 8.277019,0.395230314 C8.48013669,0.430160834 8.6719387,0.514359707 8.85242502,0.647822146 C8.90522997,0.688203531 8.94406798,0.71053102 8.96894383,0.714807005 C9.00624804,0.721224573 9.04097756,0.713679983 9.07313001,0.69217802 C9.11546873,0.661049706 9.14994222,0.613628617 9.17655048,0.549917148 L9.24909149,0.562390966" id="text17365" fill="#000" fill-rule="nonzero"/></g><path d="M31.1857406,12.818076 C30.8713972,12.8419033 30.553309,12.8914582 30.2464549,12.9316997 C29.9087135,13.6500891 29.0935565,14.3626887 28.0118607,14.8026979 C27.9442555,14.8301962 27.8693895,14.8531014 27.7997646,14.8784454 C26.6253584,15.3058969 25.4674806,15.3150757 24.7016322,14.9693444 C23.8045772,15.5578864 22.9824186,16.254618 22.2549419,17.0372896 C22.2549572,17.0390349 22.2549546,17.044558 22.2549419,17.0448654 C22.4506365,17.8109704 22.2813707,18.8763054 21.7398508,19.9006013 C21.7057396,19.9651223 21.6708433,20.0258046 21.6338028,20.0899725 C21.0059619,21.1774252 20.1127049,21.9344149 19.3007338,22.1579177 C19.2990418,22.157933 19.2936178,22.1579635 19.2931605,22.1579177 C18.9795462,23.1837862 18.7922251,24.2618821 18.7401932,25.3772472 C19.3851367,25.8368538 19.9350809,26.7633786 20.1794235,27.8996875 C20.1947656,27.9710374 20.2120105,28.0388204 20.224873,28.1117836 C20.4418925,29.3425762 20.2438505,30.4930128 19.7703779,31.1871887 C20.1928475,32.1834959 20.7327745,33.1144462 21.3762547,33.9671746 C21.3769407,33.9671441 21.3829794,33.9673041 21.3838305,33.9671746 C22.1687987,33.9164408 23.1751535,34.2631756 24.0804931,34.9670613 C24.138109,35.0118579 24.1903823,35.0633614 24.2471396,35.1109831 C25.2045263,35.9143267 25.7922325,36.9185094 25.8757412,37.7546204 C26.842853,38.2550376 27.8785328,38.641051 28.9662979,38.8908557 C29.5293714,38.3313008 30.5414652,37.9420584 31.7084075,37.8985447 C31.7813426,37.8958238 31.8539856,37.8985447 31.9280793,37.8985447 C33.1876938,37.8985447 34.2915936,38.2963308 34.8898632,38.8908557 C35.9780983,38.6408706 37.0123503,38.2553729 37.9804199,37.7546204 C38.0585478,36.9677875 38.5831734,36.0246428 39.4423724,35.2473316 C39.4964977,35.198366 39.5522617,35.1510366 39.6090215,35.1034098 C40.5563504,34.3085032 41.6379903,33.9070232 42.4723306,33.9596013 C42.4740353,33.9595759 42.4794897,33.9595226 42.4799064,33.9596013 C43.1110423,33.1225936 43.6433961,32.2075671 44.0630585,31.2326382 C43.6244541,30.5785209 43.4285513,29.5307509 43.5858386,28.3920539 C43.5958253,28.3197538 43.6108498,28.252926 43.6237149,28.1799578 C43.8424441,26.9394783 44.4265885,25.9162164 45.1159679,25.4302725 C45.0665146,24.315601 44.8798845,23.237195 44.5705763,22.210943 C43.8092576,21.9973659 42.9750114,21.3210599 42.3587068,20.3399449 C42.3198855,20.2781396 42.2897069,20.2071632 42.2526588,20.1429978 C41.622849,19.0521358 41.4157806,17.8981196 41.6315172,17.0827391 C40.8757901,16.2623538 40.0192306,15.5315541 39.0787789,14.9238949 C38.3582809,15.2571219 37.2738972,15.2745497 36.1624445,14.9163217 C36.0929796,14.8939297 36.0275415,14.8659131 35.9579242,14.8405716 C34.7835154,14.4131252 33.8832543,13.67367 33.5188071,12.9165482 C32.9972327,12.8538182 32.4664667,12.818076 31.9280793,12.818076 C31.8426779,12.818076 31.755554,12.8164602 31.6705337,12.818076 C31.626982,12.8189042 31.5852086,12.816826 31.541761,12.818076 C31.5115062,12.8189448 31.4810659,12.8169302 31.4508619,12.818076 C31.4254544,12.8190413 31.4004813,12.8168768 31.3751144,12.818076 C31.3513328,12.8192014 31.3306887,12.816732 31.3069402,12.818076 C31.305548,12.8181522 31.3006702,12.818048 31.2993644,12.818076 C31.2943774,12.8180277 31.2891999,12.818109 31.2842154,12.818076 C31.2826581,12.8180607 31.2773357,12.8180353 31.2766396,12.818076 C31.2759664,12.8181166 31.2706288,12.8180912 31.2690639,12.818076 C31.2640591,12.8180277 31.2589222,12.8181115 31.2539149,12.818076 C31.2523525,12.8180607 31.2470149,12.8180328 31.2463391,12.818076 C31.2450333,12.8181623 31.2400438,12.818048 31.2387659,12.818076 C31.2337383,12.8180251 31.2286446,12.8181141 31.2236144,12.818076 C31.222339,12.818109 31.217347,12.8179845 31.2160411,12.818076 C31.2059071,12.8187924 31.1958798,12.8173578 31.1857406,12.818076 Z" id="path18254" fill="red" fill-rule="nonzero"/><path d="M43.2027848,25.9602128 C43.2027848,32.183849 38.151713,37.2349183 31.9280793,37.2349183 C25.7044456,37.2349183 20.6533763,32.183849 20.6533763,25.9602128 C20.6533763,19.736574 25.7044456,14.6855047 31.9280793,14.6855047 C38.151713,14.6855047 43.2027848,19.736574 43.2027848,25.9602128 Z" id="path19134" stroke="#000" stroke-width=".5" fill="#FBF014" fill-rule="nonzero"/><path d="M42.2583063,25.9602128 C42.2583063,31.6624956 37.6303621,36.2904398 31.9280793,36.2904398 C26.2257965,36.2904398 21.5978548,31.6624956 21.5978548,25.9602128 C21.5978548,20.2579274 26.2257965,15.6299832 31.9280793,15.6299832 C37.6303621,15.6299832 42.2583063,20.2579274 42.2583063,25.9602128 Z" id="path19195" stroke="#000" stroke-width=".5" fill="#FBF014" fill-rule="nonzero"/></g><g id="g3056" transform="translate(25.193893, 17.749868)" stroke="#000" stroke-width=".5"><g id="g24796" transform="translate(0.628026, 0.305238)"><polygon id="path24790" fill="#0087FF" points="3.27306743 3.23817653 6.69027687 3.84568032 6.23464874 7.26288939 3.34900545 9.23727688 1.75430814 7.49070345 1.83024578 4.68099818"/><path d="M2.31893969,5.75841576 L0.986019139,5.80415352 C0.986019139,5.80415352 0.920679908,5.79108499 0.894543605,5.79108499 C0.868408446,5.79108499 0.848806601,5.79761907 0.848806601,5.79761907 L0.829204755,5.86949237 L0.796534757,5.88909384 L0.770399599,5.98056899 L0.665856294,6.03284045 L0.6593226,6.09164599 L0.561312989,6.1569856 L0.437168984,6.23539184 L0.378363828,6.21579038 L0.352227906,6.09164599 L0.313024215,6.0851123 L0.175811294,6.11124784 L0.0778032102,6.13738376 L0.071269516,5.97403568 L0.0320662061,5.92829753 L0.0320662061,5.62773729 L0.097405056,5.62773729 L0.117006138,5.33371151 L0.149676899,5.26183744 L0.136607984,5.20303191 L0.241151289,5.11155714 L0.313024215,5.05928567 L0.352227906,4.98087829 L0.358762364,4.88287059 L0.397965674,4.84366613 L0.345694212,4.79792875 L0.273820905,4.83713206 L0.182346133,4.77832652 L0.175811294,4.65418251 L0.195413522,4.5888429 L0.267286829,4.5431059 L0.299956445,4.56270774 L0.345694212,4.29481598 L0.45677083,4.22294343 L0.40449975,4.05959497 L0.443702678,3.96158613 L0.424101595,3.83744174 L0.705059604,3.73289843 L0.731195907,3.62182182 L0.757331066,3.49767819 L0.874941759,3.46500743 L0.966417294,3.41273673 L1.02522207,3.57608443 L1.03175653,3.66102551 L1.11016391,3.64795812 L1.15590091,3.53688112 L1.22777422,3.5042115 L1.25390976,3.40620266 L1.43685968,3.18404866 L1.46953006,3.11870943 L1.61980961,3.05337058 L1.72435253,3.0337695 L1.822361,2.92922657 L1.86809915,2.86388658 L1.86156469,2.78547996 L1.90730208,2.80508142 L1.97917538,2.72014034 L1.9269043,2.64173334 L1.95957354,2.58292819 L1.92036985,2.4261138 L1.87463284,2.38037603 L1.88770023,2.33463941 L1.8158273,2.43918157 L1.73742068,2.40651196 L1.72435253,2.30850349 L1.63941146,2.32810495 L1.56100445,2.3150368 L1.46953006,2.19089203 L1.41725784,2.21702796 L1.41725784,2.30196903 L1.36498638,2.26929942 L1.32578307,2.16475726 L1.2343083,2.17129019 L1.27351161,2.03407841 L1.39112192,1.79232333 L1.41072453,1.67471226 L1.27351161,1.55710156 L1.35845306,1.28921056 L1.48913153,1.14546395 L1.48259745,1.01478587 L1.39765599,1.04092179 L1.50219892,0.877573327 L1.73742068,0.759962253 L1.86156469,0.773030404 L2.07064977,0.903709249 L2.14252384,0.857971482 L2.233999,0.844904093 L2.36467746,0.746894864 L2.54109293,0.884107785 L2.53455923,0.962514405 L2.65870362,0.969048099 L2.7109747,1.04745548 L2.78284839,1.04745548 L2.7893817,0.936378483 L3.01153608,0.825302247 L3.36436854,0.792632632 L3.63225916,0.661953787 L3.78253909,0.76649671 L4.16150633,0.786098174 L4.67768649,0.302587632 L6.36959726,0.662310642 L6.27367992,3.57096556 L4.54700802,4.52350367 L4.44899956,4.4646989 L4.39672771,4.50390259 L4.37059256,4.47776667 L4.3901944,4.34708782 L4.2791174,4.36668967 L4.2464474,4.51696998 L4.14843818,4.51696998 L4.03082825,4.45816482 L4.04389563,4.40589298 L4.14190486,4.41896151 L4.13537117,4.36668967 L4.06349748,4.32748636 L3.95895532,4.34708782 L3.96548825,4.28174821 L4.04389563,4.19680751 L4.02429379,4.1641379 L3.95895532,4.23601082 L3.88054794,4.20334159 L3.81520871,4.24907935 L3.88054794,4.34055374 L3.78907317,4.39282521 L3.78253909,4.45163074 L3.65186063,4.4320289 L3.65186063,4.48430074 L3.7368017,4.48430074 L3.53424993,4.63458105 L3.48197847,4.57577551 L3.50157994,4.52350367 L3.45584255,4.52350367 L3.38396962,4.5888429 L3.25982486,4.59537736 L3.2794267,4.55617405 L3.37090185,4.53003736 L3.34476555,4.49736851 L3.25982486,4.50390259 L3.25982486,4.39282521 L3.22715486,4.41242667 L3.21408709,4.5104359 L3.16835008,4.49083367 L3.17488378,4.54963959 L3.16835008,4.60844437 L3.17488378,4.65418251 L3.12914677,4.66725028 L3.11607824,4.63458105 L3.05073939,4.66071545 L3.01153608,4.60191105 C3.01153608,4.60191105 2.93966201,4.61497844 2.95273054,4.64764806 C2.96579755,4.68031767 2.97886608,4.73912283 2.97886608,4.73912283 L2.85472131,4.69992028 L2.80245062,4.66725028 L2.80245062,4.79139467 L2.72404361,4.81099614 L2.61949993,4.71298767 L2.66523808,4.81753021 L2.547627,4.81099614 L2.47575331,4.85673352 L2.53455923,4.92207313 L2.58029662,4.97434498 L2.6325677,5.03314975 L2.60643216,5.0854216 L2.56069515,5.05928567 L2.48228777,5.17689675 L2.42348223,5.17689675 L2.37774485,5.2749056 L2.33200746,5.30757445 L2.35160931,5.35984553 L2.39081224,5.37291444 L2.38427892,5.4317196 L2.33854192,5.41865145 L2.233999,5.54932991 L2.25360046,5.59506768 L2.312406,5.5885336 L2.31893969,5.75841576 L2.31893969,5.75841576 Z" id="path23908" fill="#FFF"/><path d="M4.62517038,5.78358683 L8.3065248,7.80005828 L8.35822911,8.0792627 L8.22379737,8.16198967 L8.26516128,8.29642122 L8.38925185,8.31710294 L8.43061499,8.45153441 L9.85765715,9.47528189 L9.96106577,9.41323668 L10.0851563,9.46494087 L10.1161791,9.3305094 L10.1989057,9.24778239 L10.3643602,8.88585142 L10.271292,8.85482895 L10.3333379,8.72039744 L10.4160645,8.7410792 L10.5401559,8.57562499 L10.5608371,8.43085269 L10.4574288,8.35846643 L10.581519,8.39982988 L10.6849276,8.08960341 L10.8297002,8.04823977 L10.8607225,7.83108182 L10.9331088,7.75869514 C10.9331088,7.75869514 10.8400409,7.5001729 10.922768,7.40710583 C11.005495,7.31403685 11.3364032,7.32437802 11.3364032,7.32437802 L11.5432209,7.10721961 L11.5432209,7.02449332 L11.6673118,6.93142473 L11.5432209,6.71426632 L11.7810616,6.7866522 L11.9775384,6.71426632 L12.0912882,6.72460672 L12.2877647,6.44540322 L12.2877647,6.34199384 L11.6983346,5.58710962 L11.6983346,1.8437101 L12.0499243,1.5024615 L12.6290138,0.706212991 L12.4635596,0.633827109 L11.8741294,0.716554158 L11.7293565,0.509736155 L11.6569706,0.509736155 L11.6156067,0.395986368 L11.5121977,0.333941654 L10.5401559,0.757917682 L10.498792,0.923371779 L10.271292,1.1405298 L10.2506108,1.24393881 L10.1989057,1.25427997 L10.1472014,1.22325723 L9.14413607,0.985416875 L9.10277255,1.0681443 L8.76152318,1.05780352 L7.59300334,0.209851081 L6.71402854,0.209851081 L6.53823366,0.137464818 L6.52789326,0.0237146496 L4.9457374,0.0237146496 L4.58380647,0.385645964 L4.67687469,0.768258086 L4.81130605,0.788940802 L4.88369231,0.975076471 L5.038806,0.975076471 L5.00778288,1.15087097 L4.97676014,1.18189371 L4.96641898,1.37837016 L5.02846445,1.49211995 L5.13187384,1.55416581 L5.14221424,1.71962029 L5.33869108,1.80234657 L5.36971381,2.01950536 L5.48346322,2.10223203 L5.51448558,2.19530063 L5.43175853,2.30904965 L5.56619027,2.50552687 L5.52482713,2.63995823 L5.58687222,2.79507154 L5.58687222,2.85711663 L5.55584986,3.05359347 L5.47312243,3.11563856 L5.42141774,3.23972952 L5.35937265,3.26041147 L5.39039539,3.48791066 L5.21460012,3.50859185 L5.13187384,3.61200124 L5.04914679,3.56029731 L5.038806,3.77745572 L4.9457374,3.93256903 L4.84232878,3.93256903 L4.84232878,4.02563648 L4.71823821,4.06699962 L4.67687469,4.24279489 L4.67687469,4.38756779 L4.54244295,4.48063525 L4.51142059,4.64608973 L4.55278373,4.75983951 L4.62517038,4.80120304 L4.68721509,4.75983951 L4.65619273,4.8735893 L4.76994214,4.92529323 L4.82164683,5.05972497 L4.9457374,4.98733871 L4.92505583,4.89427087 L5.10085033,4.89427087 L5.29732793,4.80120304 L5.34903224,4.91495244 L5.44210008,4.99767949 L5.41107734,5.02870223 L5.30766796,5.00802104 L5.25596403,5.08040654 L5.18357738,5.04938456 L5.00778288,5.03904301 L4.98710055,5.11142928 L5.08016876,5.17347437 L4.99744171,5.23551947 L4.93539624,5.17347437 L4.85266919,5.2148379 L4.79062409,5.17347437 L4.68721509,5.14245163 L4.70789704,5.26654221 L4.61482921,5.26654221 L4.56312414,5.44233709 L4.65619273,5.53540607 L4.74926057,5.58710962 L4.67687469,5.73188252 L4.62517038,5.78358683 L4.62517038,5.78358683 Z" id="Kenya" fill="#FFF"/><polygon id="path22083" fill="#FFF" points="10.2878352 12.7873787 10.4017422 12.6734717 10.4017422 12.6022801 10.5156493 12.5880417 10.5820949 12.4598964 10.5963333 12.6307567 10.5346336 12.6734717 10.5441259 12.7731404 10.4634419 12.7683944 10.4871726 12.8633168 10.4444572 12.8585708 10.4397113 12.7968711 10.2878352 12.7873787"/><polygon id="path22085" fill="#FFF" points="9.88916078 10.9743597 9.89390715 10.760784 9.85119177 10.722815 9.99357547 10.6136543 10.0173061 10.4855089 10.1644362 10.4285552 10.1217208 10.5709389 10.0647675 10.5851773 10.0457832 10.756038 10.1264672 10.8604527 10.1264672 10.955375 10.1976589 10.99809 10.2925816 11.1262354 10.2925816 11.2259041 10.2261359 11.2781114 10.0932442 11.1167434 9.96984517 11.1547124 9.88916078 10.9743597"/><path d="M10.3637732,10.1485338 L10.3922499,10.0203885 L10.4492036,9.87325878 L10.3495349,9.6264604 L10.4634419,9.64069873 L10.5061569,9.74985978 L10.5820949,9.77833645 L10.5915873,9.66442941 C10.5915873,9.66442941 10.6437946,9.6264604 10.6248099,9.68341373 C10.6058256,9.74036744 10.5820949,9.94445082 10.5820949,9.94445082 L10.6390487,10.0678498 L10.5536183,10.1817569 L10.4586959,10.2766792 L10.3637732,10.1485338 L10.3637732,10.1485338 Z" id="path22087" fill="#FFF"/><polygon id="path22081" fill="#FFF" points="11.1184071 15.3360473 10.6817636 15.677768 10.1027365 15.9055821 9.96035282 16.0099968 9.66609308 16.0194891 9.45726372 16.0954271 9.31488002 16.1428885 9.15351163 16.3137489 8.8972209 16.1333961 8.5934692 16.1333961 8.48905451 16.2473032 8.47006982 16.4181635 8.2707328 16.5130859 8.14733342 16.4846092 8.07139539 16.5795315 7.72967468 16.5320706 7.62525999 16.4181635 7.44490729 16.4466402 7.19810891 16.6269929 7.08420188 16.5890239 7.05572483 16.5225782 6.97029484 16.5415629 6.89435682 16.5890239 6.75197313 16.5605472 6.76146548 16.4466402 6.64755844 16.4086712 6.52415906 16.2378108 6.36279105 16.2567951 6.31532969 16.3422255 6.20142266 16.4466402 6.06853132 16.3991788 5.58442652 16.4086712 5.46102752 16.1808575 5.34712049 16.1808575 5.19524445 15.8865978 5.2047368 15.6967527 5.26169012 15.6492914 5.28067482 15.4499543 5.15727544 15.3550316 5.1857521 15.0512799 5.12879877 14.9658495 5.10981408 14.8329582 4.89149274 14.6146365 4.91047706 14.5197141 4.61621732 14.3108844 4.5402793 14.3108844 4.52129498 14.5007294 4.4168803 14.4817451 4.34094228 14.3963148 4.01820588 14.4627604 3.88531415 14.3013924 3.74293045 14.3203767 3.61003911 14.2159621 3.43917875 14.2254544 3.3062874 14.0925627 3.03101198 14.102055 2.9645663 13.9122104 2.7842136 13.9311947 2.69878323 13.8552566 2.48995386 13.8742413 2.47096955 13.7603343 2.22417117 13.7413496 2.10077179 13.6464273 2.09127944 13.4755669 1.90143477 13.3901365 1.73057403 13.4281056 1.66412835 13.2192762 1.52174466 13.0863845 1.48377565 12.9060318 1.26545393 12.5832954 1.26545393 12.4693887 1.14205493 12.336497 1.14205493 12.0612219 1.0281479 11.9473149 1.03764025 11.8239155 1.09459357 11.8144236 1.08510122 11.7100089 0.923733214 11.5961018 0.857287159 11.4727025 0.629473476 11.2543807 0.525058792 11.2923498 0.420644108 11.2923498 0.202322391 11.0265671 0.192830043 10.8936753 0.287752379 10.7702763 0.411151759 10.7702763 0.458613118 10.6753536 0.430136074 10.561447 0.240291402 10.2387102 0.259275716 10.0773422 0.335213738 10.0203888 0.287752379 9.83054379 0.0884153584 9.65019108 0.0884153584 9.43186937 0.135876717 9.28948567 0.135876717 9.22304 0.316229423 9.13760963 0.420644108 9.0806563 0.525058792 9.00471828 0.544043106 8.90979556 0.714903846 8.81487323 0.705411498 8.71995089 0.885764204 8.5585825 0.89525617 8.4351835 0.961702225 8.27381511 1.18002394 8.17889277 1.17053159 8.12193907 1.3508843 8.02701673 1.3318996 7.78971032 1.36986861 7.71377268 1.28443863 7.66631132 1.2085006 7.68529563 1.08510122 7.62834231 0.952209877 7.66631132 0.914240866 7.55240429 1.03764025 7.41002059 0.971194192 7.35306727 1.05662456 7.17271456 1.37936096 7.1252532 1.36986861 6.88794679 1.42682232 6.81200915 1.30342294 6.63165644 1.32240764 6.3373967 1.23697727 6.23298202 1.25596158 6.14755165 1.07560888 6.03364462 0.952209877 5.8153229 1.14205493 5.78684624 1.22748492 5.72040056 2.33807782 5.72040056 2.38553918 5.80583093 2.39503152 5.91024562 2.35706251 5.94821463 2.3190935 6.09059832 2.27163214 6.20450498 2.26214018 6.26145868 2.25264783 6.38485768 2.22417117 6.52724138 2.17670981 6.57470273 2.17670981 6.68860977 2.12924845 6.73607113 2.22417117 6.75505544 2.19569412 6.88794679 2.15772511 7.03033086 2.24315548 7.05880753 2.40452387 7.03982283 2.30960115 7.22017554 2.27163214 7.36255923 2.3190935 7.54291194 2.45198485 7.42900491 2.55639953 7.50494293 2.52792287 7.34357492 2.57538423 7.21068357 2.69878323 7.27712924 2.74624459 7.22017554 2.67030657 7.1062685 2.81269026 6.98286951 2.92659729 7.14423752 3.03101198 7.16322221 3.09745765 7.31509825 3.19238037 7.11576085 3.23034938 7.25814455 3.35374838 7.22966788 3.36324073 7.38154393 3.4486711 7.50494293 3.29679505 7.58088095 3.3062874 7.74224934 3.40120974 7.71377268 3.41070209 7.5903733 3.53410108 7.55240429 3.47714776 7.42900491 3.43917875 7.29611356 3.58156244 7.09677654 3.68597713 7.11576085 3.7714075 7.2486522 3.98023687 7.23916023 4.17957389 7.04931518 4.42637227 6.97337716 4.37891129 6.8025168 4.31246562 6.8025168 4.2175429 6.91642383 3.93277551 6.86896247 3.82836082 6.81200915 3.7524228 6.85947013 3.66699281 6.88794679 3.42019405 6.77404014 3.42019405 6.67911742 3.35374838 6.63165644 3.45816306 6.59368743 3.53410108 6.68860977 3.61003911 6.67911742 3.70496144 6.63165644 3.82836082 6.74556309 4.01820588 6.70759408 4.01820588 6.61267175 3.8948065 6.57470273 3.91379119 6.49876471 4.10363587 6.48927275 4.15109722 6.42282669 4.31246562 6.37536571 4.2175429 6.24247399 4.22703525 6.16653596 4.50231029 6.24247399 4.37891129 6.10958264 4.40738795 5.98618364 4.58774066 6.09059832 4.59723301 6.04313697 4.45484931 5.93872228 4.65418633 5.73938488 8.38463983 7.770726 8.42260884 8.05549339 8.28971711 8.14092376 8.28971711 8.29279942 8.4510855 8.27381511 8.46057747 8.42569115 9.8844148 9.38440801 9.97933714 9.5457764 9.90339912 9.63120639 9.83695344 9.77359008 9.79898443 9.9919118 9.73253876 10.1058188 9.73253876 10.2956639 9.60913976 10.4190629 9.51421704 10.6563693 9.51421704 10.836722 9.59015506 10.960121 9.5426937 11.1499661 9.68507778 11.2733654 9.79898443 11.2733654 10.0742599 11.5961018 10.2166436 11.7289932 10.2830892 11.8713769 10.2071512 12.0517296 10.1122289 12.0802062 10.0267985 12.374466 10.0362908 12.5927877 10.1407055 12.6972024 10.1122289 12.8395861 10.0362908 13.0294311 9.97933714 13.2192762 10.0362908 13.4281056 10.1122289 13.5894736 10.1786745 13.6369349 10.1786745 13.7698263 10.1217208 13.7603343 10.1976589 13.940687 10.3305506 13.988148 10.3495349 14.2539311 10.2925816 14.2444387 10.3020735 14.3203767 10.4349653 14.4247914 10.4919186 14.7190512 10.4254729 14.8234658 10.4634419 14.8804196 10.6343023 14.9183886 10.700748 15.0702642 10.8336397 15.0228032 11.0424691 15.1367103 11.127899 15.2696016 11.1184071 15.3360473"/></g><path d="M0.0777759298,7.52908576 C0.00679942945,7.40404187 0.375077006,7.19016801 0.371055999,7.02351737 C0.364395739,6.73067966 0.518367029,6.60368242 0.810300135,6.45846391 C0.84643453,6.44037186 1.02055062,6.34580114 1.06607896,6.37617491 C1.12769134,6.41708083 1.15179253,6.55841254 1.25088626,6.46453767 C1.32856279,6.39084239 1.58300459,6.06636845 1.72629462,6.10900902 C1.65933415,6.27691715 1.82806239,6.48883767 1.917792,6.61331495 C2.02894378,6.76884196 2.14277458,7.03635577 2.11331536,7.21493025 C2.07578927,7.43956988 1.92582904,7.4687955 1.70353045,7.39670565 C1.45310468,7.31486894 1.39150224,7.51005929 1.1758987,7.34673381 C1.14374058,7.54948902 1.16387047,7.77069415 0.877260598,7.82158052 C0.73128659,7.84747601 0.596033611,7.86377873 0.523715118,7.73871496 C0.446048536,7.60118059 0.237135072,7.61217996 0.221065953,7.77653927 C0.129999325,7.70387285 0.0858129747,7.63670861 0.0777759298,7.52908576" id="rw" fill="#FFF"/><path d="M0.221065953,7.77664862 C0.346949834,7.42857052 0.566579358,7.80905525 0.598712626,7.81228598 C1.04867282,7.85696936 1.13839746,7.73125447 1.1758987,7.34683322 C1.42230346,7.52838992 1.34329488,7.26557308 1.90172785,7.43118989 C1.80664518,7.47040589 1.5682725,7.69309218 1.75442179,7.68609394 C1.5963947,8.03762146 1.9084229,8.05137439 2.08251911,8.00701408 C1.97537839,8.14512501 2.21375108,8.20312891 1.98743645,8.3414635 C1.84815252,8.42696832 1.8521785,8.37893989 1.82003032,8.53287142 C1.81197836,8.57069573 1.64996009,8.55190783 1.62317491,8.60083589 C1.59230908,8.65528103 1.72093659,8.77998197 1.70486747,8.81448112 C1.69552322,8.83694707 1.62585392,8.95591721 1.50800709,9.02961248 C1.32454675,9.14514314 1.29909859,9.28131066 1.10223821,9.38915717 C1.00581355,9.44233984 0.908051874,9.45804612 0.821016195,9.45816044 C0.786174089,9.35798318 0.57863244,8.98101744 0.538452186,8.85734536 C0.479528768,8.67889016 0.562608054,8.49413256 0.423284365,8.33917218 C0.439338573,8.25171899 0.488902835,8.14501566 0.40727986,8.04804924 C0.334956396,7.96231579 0.253273777,7.88163221 0.221130567,7.77663868" id="bi" fill="#FFF"/></g></g></g></g></svg>